<svg width="174" height="31" viewBox="0 0 174 31" xmlns="http://www.w3.org/2000/svg" role="img">
    <title>Product School Logo Dark</title>
    <path fill-rule="evenodd" clip-rule="evenodd" d="M22.7499 2.09963H1.6251V18.5C1.6251 24.2436 6.35399 28.8999 12.1872 28.8999C18.021 28.8999 22.7499 24.2436 22.7499 18.5V2.09963ZM12.1872 30.5C5.46771 30.5 0 25.1168 0 18.5V0.5H24.375V18.5C24.375 25.1168 18.9078 30.5 12.1872 30.5ZM10.9139 7.48273C8.66473 8.14404 7.01952 10.1975 7.01952 12.6243V18.3756C7.01952 20.8023 8.66473 22.8553 10.9139 23.5176V7.48273ZM17.9232 12.6243C17.9232 9.66422 15.4774 7.25646 12.4711 7.25646V17.9921C15.4774 17.9921 17.9232 15.5844 17.9232 12.6243ZM12.4711 23.7434V25.2772C8.60642 25.2772 5.46178 22.1814 5.46178 18.3751V12.6243C5.46178 8.81265 8.59999 5.72217 12.4711 5.72217C16.3427 5.72217 19.4809 8.81265 19.4809 12.6243C19.4809 16.4359 16.3427 19.5264 12.4711 19.5264V23.7434Z"/>
    <path d="M35.7034 8.28896L35.625 8.38527V21.6772L35.723 21.7735H37.8008L37.8988 21.6772V16.7265H39.9374C42.8384 16.7265 44.7202 14.8193 44.7202 12.5077C44.7202 10.1961 42.8384 8.28896 39.9374 8.28896H35.7034ZM37.8988 10.5428H39.8394C41.2311 10.5428 42.1328 11.2941 42.1328 12.5077C42.1328 13.7213 41.2311 14.4919 39.8394 14.4919H37.8988V10.5428Z"/>
    <path d="M46.4427 12.7196L46.3447 12.8159V21.6772L46.4427 21.7735H48.5205L48.6185 21.6772V15.5514C49.1477 14.9542 50.0494 14.5882 50.9511 14.5882C51.4411 14.5882 52.2448 14.6845 52.8328 15.1661L52.9308 15.0698L52.8328 12.8159C52.2448 12.527 51.6567 12.4307 51.0687 12.4307C50.1866 12.4307 49.3045 12.7196 48.6185 13.1049V12.8159L48.5205 12.7196H46.4427Z"/>
    <path d="M58.6603 12.4307C55.9161 12.4307 53.7599 14.5497 53.7599 17.2466C53.7599 19.9435 55.9161 22.0625 58.6603 22.0625C61.4046 22.0625 63.5608 19.9435 63.5608 17.2466C63.5608 14.5497 61.4046 12.4307 58.6603 12.4307ZM58.6603 14.5882C60.1501 14.5882 61.2086 15.7055 61.2086 17.2466C61.2086 18.7877 60.1501 19.905 58.6603 19.905C57.151 19.905 56.0925 18.7877 56.0925 17.2466C56.0925 15.7055 57.151 14.5882 58.6603 14.5882Z"/>
    <path d="M72.6324 8.28896L72.5343 8.38527V13.1049C71.9267 12.7196 71.0642 12.4307 70.1821 12.4307C67.4379 12.4307 65.3601 14.5689 65.3601 17.2466C65.3601 19.9242 67.4379 22.0625 70.1821 22.0625C71.0642 22.0625 71.9267 21.7735 72.5343 21.3883V21.6772L72.6324 21.7735H74.7101L74.8081 21.6772V8.38527L74.7101 8.28896H72.6324ZM72.5343 18.8647C71.8875 19.616 71.1034 19.905 70.2605 19.905C68.7904 19.905 67.6927 18.7684 67.6927 17.2466C67.6927 15.7247 68.7904 14.5882 70.2605 14.5882C71.1034 14.5882 71.8875 14.9735 72.5343 15.6284V18.8647Z"/>
    <path d="M77.5251 12.7196L77.4271 12.8159V17.8245C77.4271 20.4251 78.8972 22.0625 81.8375 22.0625C82.7196 22.0625 83.6016 21.7735 84.2877 21.3883V21.6772L84.3857 21.7735H86.4635L86.5615 21.6772V12.8159L86.4635 12.7196H84.3857L84.2877 12.8159V18.9418C83.7584 19.539 82.8568 19.905 81.9551 19.905C80.485 19.905 79.7009 19.1152 79.7009 17.5741V12.8159L79.6029 12.7196H77.5251Z"/>
    <path d="M97.0995 15.667V13.3938C96.3155 12.8159 95.2374 12.4307 93.9633 12.4307C90.925 12.4307 88.8668 14.5882 88.8668 17.2466C88.8668 19.905 90.925 22.0625 93.9633 22.0625C95.2374 22.0625 96.3155 21.6772 97.0995 21.0993V18.8262L97.0015 18.7299C96.0214 19.5582 94.963 19.905 93.9633 19.905C92.2579 19.905 91.1994 18.7299 91.1994 17.2466C91.1994 15.7633 92.2579 14.5882 93.9633 14.5882C94.963 14.5882 96.0214 14.9349 97.0015 15.7633L97.0995 15.667Z"/>
    <path d="M100.037 10.408L99.939 10.5043V12.7196H98.3709L98.2729 12.8159V14.8771L98.3709 14.9735H99.939V18.0557C99.939 20.5599 101.213 22.0625 103.703 22.0625C104.33 22.0625 105.329 21.7928 105.859 21.4846V19.3271L105.761 19.2307C104.996 19.7701 104.251 19.905 103.703 19.905C102.918 19.905 102.232 19.4041 102.232 17.863V14.9735H105.761L105.859 14.8771V12.8159L105.761 12.7196H102.232V10.5235L102.134 10.408H100.037Z"/>
    <path d="M118.308 11.3326L120.052 10.0612C119.19 8.78981 118.053 8 116.446 8C114.348 8 112.702 9.5411 112.702 11.583C112.702 15.3395 118.602 15.1854 118.602 17.7282C118.602 18.9225 117.798 19.7123 116.642 19.7123C115.642 19.7123 114.877 19.1729 114.329 17.9015H114.133L112.329 19.1922C113.015 21.003 114.642 22.0625 116.642 22.0625C119.19 22.0625 121.15 20.0976 121.15 17.7282C121.15 13.2975 115.25 13.3553 115.25 11.583C115.25 10.851 115.701 10.3502 116.446 10.3502C117.112 10.3502 117.583 10.6969 118.112 11.3326H118.308Z"/>
    <path d="M131.077 15.667V13.3938C130.293 12.8159 129.215 12.4307 127.941 12.4307C124.903 12.4307 122.844 14.5882 122.844 17.2466C122.844 19.905 124.903 22.0625 127.941 22.0625C129.215 22.0625 130.293 21.6772 131.077 21.0993V18.8262L130.979 18.7299C129.999 19.5582 128.94 19.905 127.941 19.905C126.235 19.905 125.177 18.7299 125.177 17.2466C125.177 15.7633 126.235 14.5882 127.941 14.5882C128.94 14.5882 129.999 14.9349 130.979 15.7633L131.077 15.667Z"/>
    <path d="M133.368 8.28896L133.27 8.38527V21.6772L133.368 21.7735H135.445L135.543 21.6772V15.5514C136.073 14.9542 136.974 14.5882 137.876 14.5882C139.346 14.5882 140.13 15.378 140.13 16.9191V21.6772L140.228 21.7735H142.306L142.404 21.6772V16.6687C142.404 14.0681 140.934 12.4307 137.994 12.4307C137.112 12.4307 136.23 12.7196 135.543 13.1049V8.38527L135.445 8.28896H133.368Z"/>
    <path d="M149.414 12.4307C146.67 12.4307 144.513 14.5497 144.513 17.2466C144.513 19.9435 146.67 22.0625 149.414 22.0625C152.158 22.0625 154.314 19.9435 154.314 17.2466C154.314 14.5497 152.158 12.4307 149.414 12.4307ZM149.414 14.5882C150.904 14.5882 151.962 15.7055 151.962 17.2466C151.962 18.7877 150.904 19.905 149.414 19.905C147.904 19.905 146.846 18.7877 146.846 17.2466C146.846 15.7055 147.904 14.5882 149.414 14.5882Z"/>
    <path d="M161.014 12.4307C158.27 12.4307 156.114 14.5497 156.114 17.2466C156.114 19.9435 158.27 22.0625 161.014 22.0625C163.758 22.0625 165.914 19.9435 165.914 17.2466C165.914 14.5497 163.758 12.4307 161.014 12.4307ZM161.014 14.5882C162.504 14.5882 163.562 15.7055 163.562 17.2466C163.562 18.7877 162.504 19.905 161.014 19.905C159.505 19.905 158.446 18.7877 158.446 17.2466C158.446 15.7055 159.505 14.5882 161.014 14.5882Z"/>
    <path d="M168.125 8.28896L168.027 8.38527V18.4795C168.027 20.6948 169.243 22.0625 171.497 22.0625C172.183 22.0625 172.947 21.7735 173.438 21.4846V19.2307L173.339 19.1344C172.751 19.7123 172.163 19.905 171.536 19.905C170.791 19.905 170.301 19.4234 170.301 18.3446V8.38527L170.203 8.28896H168.125Z"/>
</svg>
