<svg xmlns="http://www.w3.org/2000/svg" enable-background="new 0 0 512 512" viewBox="0 0 512 512" id="3"><path d="M250.083,229.98c45.983,0,83.265-34.951,83.265-78.061s-37.282-78.061-83.265-78.061
						c-31.953,0-59.701,16.872-73.648,41.633h-70.64C115.932,50.813,178.995,1,255.287,1c83.349,0,150.918,59.462,150.918,132.808
						c0,54.851-37.782,101.927-91.686,122.192c53.904,20.265,91.686,67.341,91.686,122.192c0,73.346-67.57,132.808-150.918,132.808
						c-76.292,0-139.355-49.814-149.492-114.49h70.64c13.947,24.761,41.695,41.633,73.648,41.633
						c45.983,0,83.265-34.951,83.265-78.061s-37.282-78.061-83.265-78.061V229.98z"></path></svg>